<svg xmlns="http://www.w3.org/2000/svg" xmlns:xlink="http://www.w3.org/1999/xlink" width="1080" zoomAndPan="magnify" viewBox="0 0 810 809.999993" height="1080" preserveAspectRatio="xMidYMid meet" version="1.0"><path fill="#f7f2eb" d="M 263.355469 349.109375 C 250.484375 351.84375 237.085938 360.835938 228.445312 372.648438 C 220.867188 382.875 216.457031 399.976562 218.132812 412.140625 L 218.925781 417.78125 L 220.867188 412.050781 C 228.625 389.132812 251.894531 372.382812 275.875 372.382812 C 283.984375 372.382812 290.59375 374.761719 298.792969 380.582031 C 300.203125 381.464844 301.4375 380.582031 308.929688 373 L 317.570312 364.363281 L 313.601562 360.835938 C 308.3125 356.164062 296.941406 350.609375 289.359375 349.023438 C 281.691406 347.4375 270.9375 347.4375 263.355469 349.109375 Z M 263.355469 349.109375 " fill-opacity="1" fill-rule="nonzero"/><path fill="#f7f2eb" d="M 354.152344 372.382812 C 347.011719 373.882812 342.074219 377.761719 339.519531 383.753906 C 336.167969 391.425781 338.550781 403.148438 344.191406 407.378906 C 349.65625 411.347656 360.410156 412.667969 366.496094 410.113281 C 370.109375 408.527344 375.484375 404.207031 374.867188 403.324219 C 374.691406 402.972656 372.929688 401.5625 371.078125 400.238281 L 367.550781 397.859375 L 364.203125 400.152344 C 361.382812 402.089844 360.148438 402.355469 357.414062 402.003906 C 351.332031 401.03125 348.863281 398.125 348.863281 392.128906 C 348.863281 385.957031 353.007812 381.199219 358.382812 381.199219 C 361.46875 381.199219 366.140625 383.136719 366.671875 384.726562 C 366.757812 385.164062 368.875 384.285156 371.167969 382.609375 L 375.398438 379.613281 L 372.3125 376.527344 C 368.082031 372.296875 361.46875 370.796875 354.152344 372.382812 Z M 354.152344 372.382812 " fill-opacity="1" fill-rule="nonzero"/><path fill="#f7f2eb" d="M 388.53125 391.070312 C 384.035156 401.386719 380.15625 410.113281 379.980469 410.464844 C 379.804688 410.90625 382.1875 411.171875 385.269531 411.171875 L 390.914062 411.171875 L 392.058594 407.644531 L 393.203125 404.03125 L 401.136719 404.292969 L 409.074219 404.558594 L 410.128906 407.644531 C 411.1875 410.640625 411.277344 410.730469 416.566406 410.996094 C 419.5625 411.171875 422.03125 410.996094 422.03125 410.730469 C 422.03125 410.464844 418.417969 401.648438 413.921875 391.25 L 405.898438 372.382812 L 396.730469 372.382812 Z M 403.429688 390.632812 L 405.28125 395.304688 L 401.226562 395.304688 C 398.316406 395.304688 397.261719 394.949219 397.613281 394.15625 C 400.167969 387.722656 401.136719 385.605469 401.316406 385.78125 C 401.492188 385.957031 402.460938 388.164062 403.429688 390.632812 Z M 403.429688 390.632812 " fill-opacity="1" fill-rule="nonzero"/><path fill="#f7f2eb" d="M 431.726562 391.6875 L 431.726562 411.171875 L 442.304688 411.171875 L 442.304688 398.210938 L 448.300781 397.769531 C 451.5625 397.507812 455.527344 396.625 457.117188 395.832031 C 465.226562 391.6875 465.753906 378.554688 457.910156 374.410156 C 455.792969 373.265625 452.355469 372.824219 443.453125 372.558594 L 431.726562 372.207031 Z M 451.828125 382.257812 C 453.238281 383.667969 453.148438 386.929688 451.828125 388.074219 C 451.210938 388.515625 448.828125 389.21875 446.539062 389.574219 L 442.304688 390.191406 L 442.304688 381.199219 L 446.539062 381.199219 C 448.828125 381.199219 451.210938 381.640625 451.828125 382.257812 Z M 451.828125 382.257812 " fill-opacity="1" fill-rule="nonzero"/><path fill="#f7f2eb" d="M 474.921875 391.777344 L 474.921875 411.171875 L 486.382812 411.171875 L 486.382812 372.382812 L 474.921875 372.382812 Z M 474.921875 391.777344 " fill-opacity="1" fill-rule="nonzero"/><path fill="#f7f2eb" d="M 496.078125 376.789062 L 496.078125 381.199219 L 508.421875 381.199219 L 508.421875 411.171875 L 519 411.171875 L 519.175781 396.359375 L 519.441406 381.640625 L 524.992188 381.375 C 530.898438 381.109375 530.8125 381.109375 531.78125 375.644531 L 532.308594 372.382812 L 496.078125 372.382812 Z M 496.078125 376.789062 " fill-opacity="1" fill-rule="nonzero"/><path fill="#f7f2eb" d="M 548.796875 381.816406 C 546.589844 387.015625 542.710938 395.832031 540.242188 401.210938 L 535.835938 411.171875 L 546.945312 411.171875 L 548.355469 407.644531 L 549.675781 404.117188 L 565.015625 404.117188 L 566.335938 407.644531 L 567.746094 411.171875 L 572.949219 411.171875 C 575.769531 411.171875 578.0625 410.816406 578.0625 410.378906 C 578.0625 409.9375 574.535156 401.296875 570.214844 391.160156 L 562.371094 372.824219 L 557.609375 372.558594 L 552.9375 372.296875 Z M 560.960938 395.039062 C 560.785156 395.214844 559.019531 395.304688 557.082031 395.125 L 553.644531 394.863281 L 555.40625 390.101562 L 557.257812 385.253906 L 559.285156 389.925781 C 560.429688 392.570312 561.222656 394.863281 560.960938 395.039062 Z M 560.960938 395.039062 " fill-opacity="1" fill-rule="nonzero"/><path fill="#f7f2eb" d="M 587.757812 391.777344 L 587.757812 411.171875 L 600.980469 411.171875 C 612.96875 411.171875 614.203125 410.996094 614.203125 409.582031 C 614.203125 408.789062 614.46875 406.585938 614.734375 404.734375 L 615.351562 401.472656 L 598.335938 401.472656 L 598.335938 372.382812 L 587.757812 372.382812 Z M 587.757812 391.777344 " fill-opacity="1" fill-rule="nonzero"/><path fill="#f7f2eb" d="M 244.402344 421.484375 C 243.167969 424.746094 242.902344 433.914062 243.960938 438.761719 C 245.195312 444.933594 250.75 453.570312 256.039062 457.539062 C 267.320312 466.089844 284.777344 466.617188 301.613281 458.863281 C 307.519531 456.128906 317.128906 449.339844 317.128906 447.84375 C 317.128906 447.3125 313.339844 443.257812 308.753906 438.761719 L 300.378906 430.5625 L 295.621094 433.738281 C 279.929688 444.140625 258.859375 440.085938 248.722656 424.835938 C 246.957031 422.191406 245.371094 419.984375 245.285156 419.984375 C 245.109375 419.984375 244.753906 420.691406 244.402344 421.484375 Z M 244.402344 421.484375 " fill-opacity="1" fill-rule="nonzero"/><path fill="#f7f2eb" d="M 343.222656 431.535156 C 339.785156 435.589844 340.3125 442.199219 344.367188 445.285156 C 346.835938 447.226562 352.214844 446.695312 354.59375 444.226562 C 355.828125 443.082031 356.796875 441.671875 356.796875 441.144531 C 356.796875 439.554688 353.710938 440.171875 352.566406 442.023438 C 351.15625 444.40625 347.542969 444.316406 345.867188 441.847656 C 343.925781 439.113281 344.105469 434.441406 346.21875 432.328125 C 348.597656 429.945312 350.273438 430.125 352.742188 432.769531 C 355.035156 435.238281 356.796875 435.589844 356.796875 433.648438 C 356.796875 431.003906 353.449219 428.800781 349.394531 428.800781 C 346.132812 428.800781 345.160156 429.242188 343.222656 431.535156 Z M 343.222656 431.535156 " fill-opacity="1" fill-rule="nonzero"/><path fill="#f7f2eb" d="M 373.988281 431.09375 C 372.3125 432.945312 371.785156 434.441406 371.785156 437.617188 C 371.785156 443.257812 374.78125 446.433594 380.070312 446.433594 C 385.710938 446.34375 388.53125 443.257812 388.53125 436.910156 C 388.53125 431.796875 385.449219 428.800781 380.15625 428.800781 C 376.898438 428.800781 375.664062 429.242188 373.988281 431.09375 Z M 383.242188 432.328125 C 384.390625 433.472656 385.007812 435.238281 385.007812 437.265625 C 385.007812 442.023438 383.683594 443.789062 380.15625 443.789062 C 376.632812 443.789062 375.308594 442.023438 375.308594 437.265625 C 375.308594 433.914062 377.777344 430.5625 380.15625 430.5625 C 380.863281 430.5625 382.273438 431.359375 383.242188 432.328125 Z M 383.242188 432.328125 " fill-opacity="1" fill-rule="nonzero"/><path fill="#f7f2eb" d="M 404.398438 437.617188 C 404.398438 446.078125 404.488281 446.433594 406.25 446.433594 C 408.101562 446.433594 408.191406 446.167969 407.660156 439.820312 C 407.308594 436.207031 407.222656 433.207031 407.398438 433.207031 C 407.574219 433.207031 409.425781 436.207031 411.363281 439.820312 C 414.363281 445.285156 415.417969 446.433594 417.183594 446.433594 C 419.386719 446.433594 419.386719 446.433594 419.386719 437.617188 C 419.386719 429.242188 419.296875 428.800781 417.535156 428.800781 C 415.773438 428.800781 415.683594 429.152344 416.035156 435.414062 C 416.210938 439.027344 416.210938 442.023438 416.125 442.023438 C 416.035156 442.023438 414.363281 439.027344 412.335938 435.414062 C 409.335938 430.035156 408.277344 428.800781 406.515625 428.800781 C 404.398438 428.800781 404.398438 428.890625 404.398438 437.617188 Z M 404.398438 437.617188 " fill-opacity="1" fill-rule="nonzero"/><path fill="#f7f2eb" d="M 436.664062 430.476562 C 434.019531 433.386719 435.164062 436.03125 440.101562 438.5 C 442.570312 439.730469 444.511719 441.320312 444.511719 442.023438 C 444.511719 443.875 439.574219 444.316406 438.605469 442.554688 C 437.457031 440.527344 434.285156 440.703125 434.988281 442.640625 C 435.78125 445.109375 437.988281 446.433594 441.070312 446.433594 C 445.125 446.433594 446.714844 445.636719 447.683594 443.082031 C 448.828125 440.171875 446.800781 437.085938 443.277344 436.292969 C 439.75 435.5 438.164062 433.648438 439.660156 431.886719 C 441.160156 430.125 442.042969 430.210938 443.804688 432.328125 C 445.566406 434.355469 447.59375 434.621094 447.59375 432.855469 C 447.59375 428.976562 439.574219 427.214844 436.664062 430.476562 Z M 436.664062 430.476562 " fill-opacity="1" fill-rule="nonzero"/><path fill="#f7f2eb" d="M 462.757812 436.03125 C 463.285156 444.316406 464.785156 446.433594 470.425781 446.433594 C 476.070312 446.433594 477.566406 443.964844 477.566406 435.058594 C 477.566406 429.417969 477.390625 428.800781 475.804688 428.800781 C 474.21875 428.800781 474.042969 429.417969 474.042969 434.882812 C 474.042969 442.554688 473.601562 443.789062 470.601562 443.789062 C 466.902344 443.789062 466.105469 442.289062 466.105469 435.238281 C 466.105469 429.242188 465.929688 428.800781 464.257812 428.800781 C 462.40625 428.800781 462.40625 429.152344 462.757812 436.03125 Z M 462.757812 436.03125 " fill-opacity="1" fill-rule="nonzero"/><path fill="#f7f2eb" d="M 493.433594 437.617188 L 493.433594 446.433594 L 499.605469 446.433594 C 504.542969 446.433594 505.777344 446.167969 505.777344 445.109375 C 505.777344 444.140625 504.71875 443.789062 501.367188 443.789062 L 496.960938 443.789062 L 496.960938 436.292969 C 496.960938 429.417969 496.785156 428.800781 495.199219 428.800781 C 493.523438 428.800781 493.433594 429.417969 493.433594 437.617188 Z M 493.433594 437.617188 " fill-opacity="1" fill-rule="nonzero"/><path fill="#f7f2eb" d="M 519 430.125 C 519 431.003906 519.96875 431.445312 522.085938 431.445312 L 525.167969 431.445312 L 525.167969 438.9375 C 525.167969 445.816406 525.347656 446.433594 526.933594 446.433594 C 528.519531 446.433594 528.695312 445.816406 528.695312 438.9375 L 528.695312 431.445312 L 531.78125 431.445312 C 533.898438 431.445312 534.867188 431.003906 534.867188 430.125 C 534.867188 429.066406 533.367188 428.800781 526.933594 428.800781 C 520.496094 428.800781 519 429.066406 519 430.125 Z M 519 430.125 " fill-opacity="1" fill-rule="nonzero"/><path fill="#f7f2eb" d="M 548.972656 437.617188 C 548.972656 445.816406 549.058594 446.433594 550.734375 446.433594 C 552.410156 446.433594 552.496094 445.816406 552.496094 437.617188 C 552.496094 429.417969 552.410156 428.800781 550.734375 428.800781 C 549.058594 428.800781 548.972656 429.417969 548.972656 437.617188 Z M 548.972656 437.617188 " fill-opacity="1" fill-rule="nonzero"/><path fill="#f7f2eb" d="M 568.363281 437.617188 C 568.363281 445.816406 568.453125 446.433594 570.128906 446.433594 C 571.714844 446.433594 571.890625 445.816406 571.890625 439.554688 L 571.890625 432.769531 L 575.59375 439.554688 C 578.855469 445.636719 579.558594 446.433594 581.765625 446.433594 L 584.234375 446.433594 L 584.234375 437.617188 C 584.234375 429.417969 584.144531 428.800781 582.46875 428.800781 C 580.882812 428.800781 580.707031 429.417969 580.707031 435.589844 L 580.707031 442.464844 L 576.914062 435.675781 C 573.652344 429.683594 572.859375 428.800781 570.832031 428.800781 L 568.363281 428.800781 Z M 568.363281 437.617188 " fill-opacity="1" fill-rule="nonzero"/><path fill="#f7f2eb" d="M 601.511719 431.535156 C 598.074219 435.589844 598.601562 442.199219 602.65625 445.285156 C 604.683594 446.785156 609.445312 446.695312 611.03125 445.019531 C 612.351562 443.789062 612.441406 443.789062 612.441406 445.019531 C 612.441406 445.816406 613.058594 446.433594 613.765625 446.433594 C 614.734375 446.433594 615.085938 445.375 615.085938 442.023438 L 615.085938 437.617188 L 611.558594 437.617188 C 609.003906 437.617188 608.035156 437.96875 608.035156 438.9375 C 608.035156 439.644531 608.828125 440.261719 609.796875 440.261719 C 611.824219 440.261719 612.089844 441.144531 610.503906 442.730469 C 607.503906 445.726562 602.746094 442.375 602.746094 437.175781 C 602.746094 434.003906 603.363281 432.945312 606.09375 431.535156 C 608.296875 430.386719 611.03125 431.359375 611.914062 433.648438 C 612.53125 435.324219 615.085938 435.414062 615.085938 433.648438 C 615.085938 431.003906 611.734375 428.800781 607.679688 428.800781 C 604.417969 428.800781 603.449219 429.242188 601.511719 431.535156 Z M 601.511719 431.535156 " fill-opacity="1" fill-rule="nonzero"/></svg>