<?xml version="1.0" encoding="UTF-8"?>
<svg version="1.1" xmlns="http://www.w3.org/2000/svg" width="518" height="196">

<path d="M0 0 C17.41670474 -0.91441591 33.12401276 3.30662795 46.60742188 14.99853516 C47.72129475 16.02981625 48.82950353 17.0674853 49.91992188 18.12353516 C48.46246764 21.48689109 46.60874334 23.66887521 44.00585938 26.23291016 C42.86503906 27.3640625 42.86503906 27.3640625 41.70117188 28.51806641 C40.90710938 29.29537109 40.11304688 30.07267578 39.29492188 30.87353516 C38.493125 31.66630859 37.69132812 32.45908203 36.86523438 33.27587891 C34.88789342 35.22968009 32.90603279 37.17865618 30.91992188 39.12353516 C30.24880371 38.71143799 29.57768555 38.29934082 28.88623047 37.87475586 C27.99758301 37.33423584 27.10893555 36.79371582 26.19335938 36.23681641 C25.31599121 35.70096924 24.43862305 35.16512207 23.53466797 34.61303711 C12.36304648 28.24907234 -0.17084856 27.36218494 -12.49658203 30.50610352 C-29.95413655 35.52887432 -44.41529516 45.26206132 -53.58007812 61.18603516 C-56.67185814 66.97668147 -59.13588793 72.85607992 -61.08007812 79.12353516 C-61.41007812 79.12353516 -61.74007812 79.12353516 -62.08007812 79.12353516 C-65.52242638 61.21212959 -62.16315342 44.07242907 -51.92382812 28.93603516 C-42.36415879 15.59750302 -29.69752609 6.32935115 -14.08007812 1.12353516 C-9.40827484 0.47667009 -4.70484069 0.27941894 0 0 Z " fill="#FFFFFF" transform="translate(95.080078125,32.87646484375)"/>
<path d="M0 0 C0.66 0 1.32 0 2 0 C3.23973266 1.67081476 4.41646236 3.38857933 5.5625 5.125 C10.78714337 12.48871837 17.3360023 17.24938789 26 20 C29.03104776 20.50220198 31.99312358 20.61813129 35.0625 20.625 C35.8887085 20.62806152 36.71491699 20.63112305 37.56616211 20.63427734 C46.32894206 20.38543572 54.69176758 17.30823242 61 11 C66.54017922 11.43129748 70.13142848 16.61928974 73.8125 20.3125 C74.61365234 21.08529297 75.41480469 21.85808594 76.24023438 22.65429688 C76.99240234 23.40388672 77.74457031 24.15347656 78.51953125 24.92578125 C79.55750854 25.95312378 79.55750854 25.95312378 80.61645508 27.0012207 C82 29 82 29 81.88598633 31.11376953 C80.43040872 34.2126377 77.65069945 35.73362248 74.875 37.5625 C74.318125 37.94857422 73.76125 38.33464844 73.1875 38.73242188 C60.39654577 47.38252571 44.33850099 51.89576979 29 50 C18.47527372 47.57478744 10.45552577 42.15066343 4.12109375 33.40625 C-0.04474441 26.74090894 -2.28487556 20.95162867 -2.25 13 C-2.25515625 11.824375 -2.2603125 10.64875 -2.265625 9.4375 C-1.99850304 5.98062755 -1.23880483 3.22482527 0 0 Z " fill="#FFFFFF" transform="translate(63,116)"/>
<path d="M0 0 C1.51400391 0.01740234 1.51400391 0.01740234 3.05859375 0.03515625 C4.07050781 0.04417969 5.08242187 0.05320313 6.125 0.0625 C7.29869141 0.07990234 7.29869141 0.07990234 8.49609375 0.09765625 C13.07476038 9.56752648 17.30699543 19.17292016 21.43359375 28.84765625 C21.93028564 30.00249512 22.42697754 31.15733398 22.9387207 32.34716797 C23.39980225 33.43529785 23.86088379 34.52342773 24.3359375 35.64453125 C24.75222412 36.62260742 25.16851074 37.60068359 25.59741211 38.60839844 C26.49609375 41.09765625 26.49609375 41.09765625 26.49609375 44.09765625 C22.53609375 44.09765625 18.57609375 44.09765625 14.49609375 44.09765625 C11.49609375 38.34765625 11.49609375 38.34765625 11.49609375 36.09765625 C5.55609375 36.09765625 -0.38390625 36.09765625 -6.50390625 36.09765625 C-6.99890625 38.57265625 -6.99890625 38.57265625 -7.50390625 41.09765625 C-7.83390625 42.08765625 -8.16390625 43.07765625 -8.50390625 44.09765625 C-12.79390625 44.09765625 -17.08390625 44.09765625 -21.50390625 44.09765625 C-19.25336118 37.34602105 -19.25336118 37.34602105 -17.82397461 34.03588867 C-17.34854469 32.93025826 -17.34854469 32.93025826 -16.86351013 31.80229187 C-16.35872887 30.63945427 -16.35872887 30.63945427 -15.84375 29.453125 C-15.49381485 28.6427327 -15.1438797 27.83234039 -14.78334045 26.99739075 C-14.04746133 25.2950114 -13.31033275 23.59317166 -12.57202148 21.8918457 C-11.43820794 19.27778238 -10.30967578 16.6614831 -9.18164062 14.04492188 C-8.46515757 12.38918708 -7.74837145 10.73358339 -7.03125 9.078125 C-6.69270493 8.29277878 -6.35415985 7.50743256 -6.00535583 6.69828796 C-3.14473206 0.12264946 -3.14473206 0.12264946 0 0 Z " fill="#FFFFFF" transform="translate(237.50390625,60.90234375)"/>
<path d="M0 0 C3.63 0 7.26 0 11 0 C15.20723416 8.10073575 18.8181186 16.39247589 22.35864258 24.79858398 C23.32438239 27.09070205 24.29562313 29.38043331 25.26757812 31.66992188 C25.88313142 33.12486511 26.49837754 34.57993836 27.11328125 36.03515625 C27.40382889 36.72045914 27.69437653 37.40576202 27.99372864 38.11183167 C30 42.88410257 30 42.88410257 30 44 C25.71 44 21.42 44 17 44 C16.01 41.69 15.02 39.38 14 37 C8.39 37 2.78 37 -3 37 C-3.99 39.31 -4.98 41.62 -6 44 C-10.29 44 -14.58 44 -19 44 C-13.05589333 29.16066328 -6.53978769 14.58354922 0 0 Z " fill="#FFFFFF" transform="translate(412,61)"/>
<path d="M0 0 C6.1875 -0.1546875 6.1875 -0.1546875 12.5 -0.3125 C13.78455078 -0.35802002 15.06910156 -0.40354004 16.39257812 -0.45043945 C23.47055142 -0.53577594 28.68293061 0.02628054 34 5 C37.1262759 9.68941386 36.68918355 14.51554986 36 20 C34.33215317 24.0028324 31.24832552 26.12961257 27.375 27.875 C22.29967946 29.537605 17.28682652 29.19825599 12 29 C12 33.95 12 38.9 12 44 C8.04 44 4.08 44 0 44 C0 29.48 0 14.96 0 0 Z " fill="#FFFFFF" transform="translate(275,61)"/>
<path d="M0 0 C2.88716662 1.72131287 5.32294286 3.60680358 7.4375 6.25 C7.4375 6.91 7.4375 7.57 7.4375 8.25 C5.46875 9.7578125 5.46875 9.7578125 2.9375 11.375 C2.1021875 11.91382812 1.266875 12.45265625 0.40625 13.0078125 C-0.2434375 13.41773437 -0.893125 13.82765625 -1.5625 14.25 C-2.3875 13.59 -3.2125 12.93 -4.0625 12.25 C-8.06106026 9.61265174 -10.83552796 9.57471828 -15.5625 10.25 C-18.52300874 12.54199403 -18.52300874 12.54199403 -20.5625 15.25 C-20.8925 15.58 -21.2225 15.91 -21.5625 16.25 C-22.09384831 20.95373913 -22.15253387 24.99297132 -20.125 29.3125 C-16.46710255 32.07822734 -13.11445507 32.70123729 -8.5625 32.25 C-5.28939447 30.34643013 -5.28939447 30.34643013 -2.5625 28.25 C1.56348619 28.12106293 4.52170271 31.66554331 7.4375 34.25 C3.99968775 38.93792579 1.14035077 41.53507691 -4.5625 43.25 C-7.31487506 43.55581945 -9.76178995 43.72915202 -12.5 43.6875 C-13.20294189 43.67920166 -13.90588379 43.67090332 -14.63012695 43.66235352 C-20.05684126 43.48542966 -24.4010775 42.86497309 -28.5625 39.25 C-34.54602135 32.60164294 -35.16247379 25.9502215 -34.97265625 17.2890625 C-34.61764887 11.79471894 -32.4448544 8.09697988 -28.5625 4.25 C-20.50821544 -2.16055302 -9.64154193 -4.60329257 0 0 Z " fill="#FFFFFF" transform="translate(203.5625,61.75)"/>
<path d="M0 0 C13.53 0 27.06 0 41 0 C40.67 3.3 40.34 6.6 40 10 C35.38 10 30.76 10 26 10 C26 21.22 26 32.44 26 44 C22.04 44 18.08 44 14 44 C14 32.78 14 21.56 14 10 C9.38 10 4.76 10 0 10 C0 6.7 0 3.4 0 0 Z " fill="#FFFFFF" transform="translate(348,61)"/>
<path d="M0 0 C3.96 0 7.92 0 12 0 C12 10.89 12 21.78 12 33 C18.27 33 24.54 33 31 33 C31 40 31 40 30 44 C20.1 44 10.2 44 0 44 C0 29.48 0 14.96 0 0 Z " fill="#FFFFFF" transform="translate(452,61)"/>
<path d="M0 0 C4.29 0 8.58 0 13 0 C13 14.52 13 29.04 13 44 C8.71 44 4.42 44 0 44 C0 29.48 0 14.96 0 0 Z " fill="#FFFFFF" transform="translate(324,61)"/>
<path d="M0 0 C3.0625 1.875 3.0625 1.875 5 5 C6.00187438 10.05077166 5.79376084 13.71974058 3.0625 18.125 C-1.07144905 20.65598921 -4.27493702 21.02533012 -9 20 C-12.0625 18.125 -12.0625 18.125 -14 15 C-15.00187438 9.94922834 -14.79376084 6.28025942 -12.0625 1.875 C-7.92855095 -0.65598921 -4.72506298 -1.02533012 0 0 Z " fill="#FFFFFF" transform="translate(221,125)"/>
<path d="M0 0 C1.98 0 3.96 0 6 0 C8.31 4.29 10.62 8.58 13 13 C13.33 8.71 13.66 4.42 14 0 C15.32 0 16.64 0 18 0 C18 6.6 18 13.2 18 20 C16.02 20 14.04 20 12 20 C9.69 15.71 7.38 11.42 5 7 C4.67 11.29 4.34 15.58 4 20 C2.68 20 1.36 20 0 20 C0 13.4 0 6.8 0 0 Z " fill="#FFFFFF" transform="translate(430,125)"/>
<path d="M0 0 C1.65 0 3.3 0 5 0 C6.765625 2.1171875 6.765625 2.1171875 8.25 4.875 C9.00023437 6.23238281 9.00023437 6.23238281 9.765625 7.6171875 C10.51991093 9.07324579 11.26664429 10.53328857 12 12 C12.33 8.04 12.66 4.08 13 0 C14.32 0 15.64 0 17 0 C17 6.6 17 13.2 17 20 C15.35 20 13.7 20 12 20 C10.48828125 18.390625 10.48828125 18.390625 9.3125 16.25 C8.91675781 15.55390625 8.52101562 14.8578125 8.11328125 14.140625 C7.05439804 12.10459693 6.02631807 10.05263615 5 8 C4.67 11.96 4.34 15.92 4 20 C2.68 20 1.36 20 0 20 C0 13.4 0 6.8 0 0 Z " fill="#FFFFFF" transform="translate(244,125)"/>
<path d="M0 0 C2.5625 1.25 2.5625 1.25 4 3 C4 4.32 4 5.64 4 7 C2.68 7 1.36 7 0 7 C-0.33 6.01 -0.66 5.02 -1 4 C-3.91652174 3.83318891 -3.91652174 3.83318891 -7 4 C-9.37198957 5.93602047 -9.37198957 5.93602047 -9.25 9.4375 C-9.28809647 13.10420618 -9.28809647 13.10420618 -7 16 C-4.5 16.5 -4.5 16.5 -2 16 C-1.34 15.01 -0.68 14.02 0 13 C-1.32 13 -2.64 13 -4 13 C-4 12.01 -4 11.02 -4 10 C-1.36 10 1.28 10 4 10 C4 13.3 4 16.6 4 20 C2.68 19.67 1.36 19.34 0 19 C-0.33 19.33 -0.66 19.66 -1 20 C-8.22962963 20.59259259 -8.22962963 20.59259259 -11.4375 18.125 C-14.53323867 13.9147954 -14.74963878 10.11518227 -14 5 C-10.44483872 -0.61944848 -6.16373653 -1.05795478 0 0 Z " fill="#FFFFFF" transform="translate(479,125)"/>
<path d="M0 0 C2 1.3125 2 1.3125 3 3 C3 3.99 3 4.98 3 6 C1.68 6 0.36 6 -1 6 C-1.33 5.34 -1.66 4.68 -2 4 C-3.32 4 -4.64 4 -6 4 C-5.67 4.99 -5.34 5.98 -5 7 C-2.68895182 8.05047644 -0.35416349 9.05007438 2 10 C4 12 4 12 4.375 14.4375 C4 17 4 17 2.5 18.8125 C-1.21429332 20.57678933 -3.89352076 20.32591105 -8 20 C-11 18 -11 18 -11.6875 15.875 C-11.790625 15.25625 -11.89375 14.6375 -12 14 C-8.1936543 14.67170806 -4.64793184 15.72746564 -1 17 C-0.95710245 15.06890419 -0.95710245 15.06890419 -2 13 C-5.42168849 11.33118065 -5.42168849 11.33118065 -9 10 C-11 8 -11 8 -11.3125 5.5625 C-11 3 -11 3 -10 1.1875 C-6.81103395 -0.70594859 -3.60943101 -0.5639736 0 0 Z " fill="#FFFFFF" transform="translate(290,125)"/>
<path d="M0 0 C1.32 0 2.64 0 4 0 C4.33 4.95 4.66 9.9 5 15 C7.31 15.66 9.62 16.32 12 17 C12.33 11.39 12.66 5.78 13 0 C14.32 0 15.64 0 17 0 C17.05411124 2.41696872 17.09372278 4.83271787 17.125 7.25 C17.15013672 8.27287109 17.15013672 8.27287109 17.17578125 9.31640625 C17.21185049 13.0315375 17.18812735 15.90907884 15 19 C12.71273777 20.14363112 11.17147573 20.26501932 8.625 20.375 C7.46871094 20.44847656 7.46871094 20.44847656 6.2890625 20.5234375 C4 20 4 20 1.7265625 17.96484375 C-0.41537778 14.28671553 -0.45513248 11.30987389 -0.25 7.1875 C-0.23195313 6.49462891 -0.21390625 5.80175781 -0.1953125 5.08789062 C-0.14851064 3.39132336 -0.07677624 1.69547524 0 0 Z " fill="#FFFFFF" transform="translate(310,125)"/>
<path d="M0 0 C2.5625 1.25 2.5625 1.25 4 3 C4 4.32 4 5.64 4 7 C2.68 7 1.36 7 0 7 C-0.33 6.01 -0.66 5.02 -1 4 C-3.64 4 -6.28 4 -9 4 C-9.05422947 5.4370809 -9.09289723 6.87475462 -9.125 8.3125 C-9.15980469 9.51326172 -9.15980469 9.51326172 -9.1953125 10.73828125 C-9.15817322 13.28388576 -9.15817322 13.28388576 -7 16 C-4.5 16.5 -4.5 16.5 -2 16 C-1.34 15.01 -0.68 14.02 0 13 C1.32 13 2.64 13 4 13 C2.75023244 16.65316671 2.32901247 17.78065836 -1 20 C-8.11864407 20.6779661 -8.11864407 20.6779661 -11.4375 18.125 C-14.53323867 13.9147954 -14.74963878 10.11518227 -14 5 C-10.44483872 -0.61944848 -6.16373653 -1.05795478 0 0 Z " fill="#FFFFFF" transform="translate(186,125)"/>
<path d="M0 0 C3.5 -0.375 3.5 -0.375 7 0 C9.54440716 3.81661075 9.57622479 6.5296109 9 11 C7.9375 13.0625 7.9375 13.0625 6 14 C2.375 13.8125 2.375 13.8125 -1 13 C-2.5635348 9.87293041 -2.39958487 6.42017557 -2 3 C-1.34 2.01 -0.68 1.02 0 0 Z " fill="#F0EAE3" transform="translate(213,128)"/>
<path d="M0 0 C5.94 0 11.88 0 18 0 C18 0.99 18 1.98 18 3 C15.69 3 13.38 3 11 3 C11 8.61 11 14.22 11 20 C9.68 20 8.36 20 7 20 C7 14.39 7 8.78 7 3 C4.69 3 2.38 3 0 3 C0 2.01 0 1.02 0 0 Z " fill="#FFFFFF" transform="translate(374,125)"/>
<path d="M0 0 C1.32 0 2.64 0 4 0 C4 5.61 4 11.22 4 17 C7.3 17 10.6 17 14 17 C14 17.99 14 18.98 14 20 C9.38 20 4.76 20 0 20 C0 13.4 0 6.8 0 0 Z " fill="#FFFFFF" transform="translate(345,125)"/>
<path d="M0 0 C8.625 -0.25 8.625 -0.25 12 2 C12.375 4.5 12.375 4.5 12 7 C7.7975546 9.80163026 4.99895065 9.14489712 0 9 C0 6.03 0 3.06 0 0 Z " fill="#F3EDE6" transform="translate(287,71)"/>
<path d="M0 0 C1.32 0 2.64 0 4 0 C4 6.6 4 13.2 4 20 C2.68 20 1.36 20 0 20 C0 13.4 0 6.8 0 0 Z " fill="#FFFFFF" transform="translate(408,125)"/>
<path d="M0 0 C3.44216672 2.6598561 3.99504674 5.90288286 5 10 C2.03 10 -0.94 10 -4 10 C-2.8905928 6.51329166 -1.73662334 3.22515763 0 0 Z " fill="#DDD7D3" transform="translate(417,77)"/>
<path d="M0 0 C2 1 2 1 2.8515625 3.06640625 C3.10679687 3.89011719 3.36203125 4.71382813 3.625 5.5625 C3.88539063 6.38878906 4.14578125 7.21507813 4.4140625 8.06640625 C4.60742188 8.70449219 4.80078125 9.34257813 5 10 C2.03 10 -0.94 10 -4 10 C-3.52449439 8.51965236 -3.04448784 7.04074979 -2.5625 5.5625 C-2.29566406 4.73878906 -2.02882812 3.91507812 -1.75390625 3.06640625 C-1 1 -1 1 0 0 Z " fill="#DED8D4" transform="translate(240,77)"/>
</svg>
